HIERARCHY
ROOT mixamorig:Hips
{
  OFFSET 0.000000 0.000000 0.000000
  CHANNELS 6 Xposition Yposition Zposition Xrotation Yrotation Zrotation
  JOINT mixamorig:Spine
  {
    OFFSET 0.888281 24.507439 -2.720481
    CHANNELS 3 Xrotation Yrotation Zrotation
    JOINT mixamorig:Spine2
    {
      OFFSET 0.888281 24.507439 -2.720481
      CHANNELS 3 Xrotation Yrotation Zrotation
      JOINT mixamorig:Neck
      {
        OFFSET 0.000000 6.350396 0.000000
        CHANNELS 3 Xrotation Yrotation Zrotation
        JOINT mixamorig:Head
        {
          OFFSET 0.000000 6.819653 0.000000
          CHANNELS 3 Xrotation Yrotation Zrotation
          End Site
          {
            OFFSET 0.000000 2.045896 0.000000
          }
        }
      }
      JOINT mixamorig:LeftShoulder
      {
        OFFSET 16.020412 2.520092 -5.380821
        CHANNELS 3 Xrotation Yrotation Zrotation
        JOINT mixamorig:LeftArm
        {
          OFFSET 7.174613 -21.018147 2.026162
          CHANNELS 3 Xrotation Yrotation Zrotation
          JOINT mixamorig:LeftForeArm
          {
            OFFSET 0.443742 -23.897695 0.124221
            CHANNELS 3 Xrotation Yrotation Zrotation
            JOINT mixamorig:LeftHand
            {
              OFFSET -1.618444 -3.672687 -1.347049
              CHANNELS 3 Xrotation Yrotation Zrotation
              End Site
              {
                OFFSET -0.485533 -1.101806 -0.404115
              }
            }
          }
        }
      }
      JOINT mixamorig:RightShoulder
      {
        OFFSET -16.020412 2.520092 5.380821
        CHANNELS 3 Xrotation Yrotation Zrotation
        JOINT mixamorig:RightArm
        {
          OFFSET -3.142406 -31.026639 -0.548359
          CHANNELS 3 Xrotation Yrotation Zrotation
          JOINT mixamorig:RightForeArm
          {
            OFFSET -5.241451 -19.867372 -8.702222
            CHANNELS 3 Xrotation Yrotation Zrotation
            JOINT mixamorig:RightHand
            {
              OFFSET 1.797950 -2.703908 -3.942030
              CHANNELS 3 Xrotation Yrotation Zrotation
              End Site
              {
                OFFSET 0.539385 -0.811172 -1.182609
              }
            }
          }
        }
      }
    }
  }
  JOINT mixamorig:LeftUpLeg
  {
    OFFSET 9.330592 -0.608966 -0.480705
    CHANNELS 3 Xrotation Yrotation Zrotation
    JOINT mixamorig:LeftLeg
    {
      OFFSET 1.429883 -38.712545 -8.162867
      CHANNELS 3 Xrotation Yrotation Zrotation
      JOINT mixamorig:LeftFoot
      {
        OFFSET 2.312643 -36.159945 16.923572
        CHANNELS 3 Xrotation Yrotation Zrotation
        JOINT mixamorig:LeftToeBase
        {
          OFFSET -4.896681 -6.214452 -6.817048
          CHANNELS 3 Xrotation Yrotation Zrotation
          End Site
          {
            OFFSET -1.469004 -1.864336 -2.045114
          }
        }
      }
    }
  }
  JOINT mixamorig:RightUpLeg
  {
    OFFSET -9.330592 0.608966 0.480705
    CHANNELS 3 Xrotation Yrotation Zrotation
    JOINT mixamorig:RightLeg
    {
      OFFSET 5.197952 -35.546916 1.847739
      CHANNELS 3 Xrotation Yrotation Zrotation
      JOINT mixamorig:RightFoot
      {
        OFFSET -1.175352 -43.737760 11.185155
        CHANNELS 3 Xrotation Yrotation Zrotation
        JOINT mixamorig:RightToeBase
        {
          OFFSET -5.934362 -2.936864 -9.381618
          CHANNELS 3 Xrotation Yrotation Zrotation
          End Site
          {
            OFFSET -1.780308 -0.881059 -2.814485
          }
        }
      }
    }
  }
}
MOTION
Frames: 11
Frame Time: 0.083333
0.125117 0.139777 0.107910 0.854060 -0.025124 0.021801 0.000000 0.000000 0.000000 -4.527446 41.215363 2.399864 4.080493 -9.782101 8.761075 2.335022 -10.289935 7.923704 11.349685 -38.941606 -3.207631 -13.929431 -6.220702 -17.483410 5.566265 16.387906 -6.541873 0.000000 0.000000 0.000000 0.000000 0.000000 0.000000 0.000000 0.000000 0.000000 0.000000 0.000000 0.000000 0.000000 0.000000 0.000000 -10.013736 -0.341785 0.331130 9.679171 2.664412 4.619960 11.734346 9.467679 -22.860699 0.000000 0.000000 0.000000 0.382176 -0.571272 -18.225103 6.010178 -1.419195 -0.322012 5.033794 19.896812 4.823225 0.000000 0.000000 0.000000
0.124108 0.139486 0.111131 0.698804 -0.015631 0.056340 0.000000 0.000000 0.000000 -4.539813 41.017794 2.478645 4.195526 -9.857272 8.787289 2.422615 -10.383304 7.922097 11.625966 -38.694756 -3.061547 -13.726638 -6.143840 -17.600932 5.540317 16.265136 -6.491037 0.000000 0.000000 0.000000 0.000000 0.000000 0.000000 0.000000 0.000000 0.000000 0.000000 0.000000 0.000000 0.000000 0.000000 0.000000 -9.884143 -0.333112 0.280066 9.701532 2.544574 4.393314 11.467861 9.291939 -22.244124 0.000000 0.000000 0.000000 0.667479 -0.535255 -18.173331 5.887851 -1.505013 -0.309993 5.123958 19.613388 4.790391 0.000000 0.000000 0.000000
0.122176 0.137859 0.118115 2.382023 -0.114943 -0.321344 0.000000 0.000000 0.000000 -4.554790 40.799042 1.669261 3.389926 -8.910399 7.901051 1.998353 -9.288157 7.277670 8.567752 -38.976207 -3.711157 -13.615533 -5.775718 -17.506791 4.856024 16.086429 -6.132167 0.000000 0.000000 0.000000 0.000000 0.000000 0.000000 0.000000 0.000000 0.000000 0.000000 0.000000 0.000000 0.000000 0.000000 0.000000 -14.444875 -0.744997 3.877459 10.236852 4.503894 5.488001 14.478960 7.799937 -27.399557 0.000000 0.000000 0.000000 -2.219518 -0.742570 -16.366761 6.986759 -0.561815 0.068918 3.971369 19.844098 3.458722 0.000000 0.000000 0.000000
0.122913 0.135284 0.124318 2.722130 -0.129760 -0.361659 -0.000000 0.000000 0.000000 -4.631759 39.578560 1.500523 3.639990 -8.472735 7.534704 2.370626 -8.877377 6.917126 7.851927 -37.874411 -3.384558 -12.097688 -4.914162 -17.374740 4.259884 14.553413 -4.944707 0.000000 0.000000 0.000000 0.000000 0.000000 0.000000 0.000000 0.000000 0.000000 0.000000 0.000000 0.000000 0.000000 0.000000 0.000000 -16.917621 -0.994494 6.396754 8.848251 5.516773 4.661763 14.046439 5.329759 -25.687030 0.000000 0.000000 0.000000 -2.668723 -0.685171 -14.852009 6.951452 -0.193445 1.523363 2.791912 16.933920 2.265495 0.000000 0.000000 0.000000
0.128738 0.131603 0.129451 3.091823 -0.143632 -0.392195 -0.000000 0.000000 0.000000 -4.663680 39.065145 1.305395 4.002675 -7.732669 7.717986 2.813287 -8.203118 7.111959 7.474796 -37.354991 -3.105727 -10.599158 -4.159213 -15.200730 4.184333 11.987780 -3.304146 0.000000 0.000000 0.000000 0.000000 0.000000 0.000000 0.000000 0.000000 0.000000 0.000000 0.000000 0.000000 0.000000 0.000000 0.000000 -17.580072 -1.091339 7.616883 4.217426 6.852367 4.428931 10.252537 3.353236 -20.516774 0.000000 0.000000 0.000000 -3.016776 -0.633399 -14.135845 6.398035 0.276924 4.550159 0.173095 13.228996 1.546307 0.000000 0.000000 0.000000
0.136659 0.127911 0.134233 3.948542 -0.196939 -0.721747 -0.000000 0.000000 0.000000 -4.718718 38.172566 1.058228 3.990434 -6.585025 8.049850 2.947267 -7.083368 7.547232 7.380805 -36.093560 -2.424648 -8.087400 -3.303448 -11.468844 4.162781 8.331422 -2.311207 0.000000 0.000000 0.000000 0.000000 0.000000 0.000000 0.000000 0.000000 0.000000 0.000000 0.000000 0.000000 0.000000 0.000000 0.000000 -17.546631 -1.157502 7.921736 -0.169897 8.905305 6.454362 3.490121 1.980778 -15.168419 0.000000 0.000000 0.000000 -3.947436 -0.552148 -12.418376 5.164474 0.498599 6.798136 -3.022579 12.133111 0.820834 0.000000 0.000000 0.000000
0.142878 0.124548 0.139780 4.261551 -0.238777 -1.157363 -0.000000 0.000000 0.000000 -4.807591 36.641709 1.267034 4.139192 -5.588396 8.332501 3.224457 -6.134648 7.901186 7.847305 -34.144942 -2.092217 -3.785334 -2.342763 -7.054047 3.408363 3.973854 -0.952252 0.000000 0.000000 0.000000 0.000000 0.000000 0.000000 0.000000 0.000000 0.000000 0.000000 0.000000 0.000000 0.000000 0.000000 0.000000 -16.674818 -1.210154 7.859429 -5.184414 10.439608 8.018340 -2.762993 3.340528 -10.103209 0.000000 0.000000 0.000000 -4.615227 -0.495914 -9.378120 3.588108 0.375718 6.734454 -5.848620 12.581074 0.854164 0.000000 0.000000 0.000000
0.146821 0.122657 0.144419 4.159055 -0.249389 -1.339215 -0.000000 0.000000 0.000000 -4.900968 34.902303 1.515075 4.329395 -5.149151 8.558905 3.460619 -5.743223 8.150845 8.551752 -32.103815 -1.792993 1.797157 -1.255306 -2.760677 -0.626129 -0.279312 -0.251584 0.000000 0.000000 0.000000 0.000000 0.000000 0.000000 0.000000 0.000000 0.000000 0.000000 0.000000 0.000000 0.000000 0.000000 0.000000 -14.708102 -1.177981 7.368794 -9.954102 10.550386 8.035023 -3.876343 6.229723 -8.899657 0.000000 0.000000 0.000000 -4.787173 -0.406307 -6.296335 3.214077 0.289529 4.938909 -6.207919 10.231618 1.290695 0.000000 0.000000 0.000000
0.148328 0.122247 0.145961 3.316610 -0.212642 -1.154125 -0.000000 0.000000 0.000000 -5.055932 31.774436 1.828148 4.920872 -4.921252 8.789093 4.054850 -5.627197 8.357127 8.893072 -29.214217 -1.742930 1.820658 -1.407575 -0.085469 -1.943149 -1.000068 -0.256137 0.000000 0.000000 0.000000 0.000000 0.000000 0.000000 0.000000 0.000000 0.000000 0.000000 0.000000 0.000000 0.000000 0.000000 0.000000 -12.369571 -1.050572 6.432562 -12.213808 9.418542 7.196989 -3.194779 9.494985 -10.581433 0.000000 0.000000 0.000000 -3.535487 -0.239529 -5.120234 2.592896 0.389151 5.323768 -5.666433 9.403481 -0.276145 0.000000 0.000000 0.000000
0.147760 0.123199 0.143330 1.564632 -0.142198 -0.899369 0.000000 0.000000 0.000000 -5.293019 26.764625 2.443882 6.024387 -4.871145 9.002998 5.120624 -5.768538 8.492967 9.325670 -24.783304 -1.564258 1.326787 -1.332916 0.952935 -1.847053 -0.969641 -0.657995 0.000000 0.000000 0.000000 0.000000 0.000000 0.000000 0.000000 0.000000 0.000000 0.000000 0.000000 0.000000 0.000000 0.000000 0.000000 -9.177225 -0.879214 5.144567 -11.479246 7.450000 6.060469 -2.716454 10.546526 -10.637266 0.000000 0.000000 0.000000 -1.546603 -0.121426 -3.738751 1.959165 0.233134 4.176698 -5.284209 9.069579 -0.614361 0.000000 0.000000 0.000000
0.147072 0.124049 0.133759 0.455479 -0.072849 -0.530720 0.000000 0.000000 0.000000 -5.450091 23.185200 2.449824 6.540700 -4.916239 8.839645 5.632652 -5.881341 8.287856 8.437849 -22.067249 -1.322862 -0.039119 -0.961143 0.738769 -0.823491 -0.291851 -0.655185 0.000000 0.000000 0.000000 0.423109 -1.442448 -0.037094 -0.006875 -0.000091 0.039404 0.000000 0.000000 0.000000 0.000000 0.000000 0.000000 -5.842409 -0.562715 2.981976 -8.501086 3.951446 3.581666 -3.401243 9.952840 -5.849653 0.000000 0.000000 0.000000 -0.760892 -0.114985 -1.949848 1.928723 0.204501 2.395431 -4.233704 7.768674 -0.945623 0.000000 0.000000 0.000000
